<svg xmlns="http://www.w3.org/2000/svg" viewBox="0 0 1687 180.4"><title>gogologo</title><g id="Layer_2" data-name="Layer 2"><g id="Contours"><path d="M1687,16q-15.29.87-30.58,1.22c-7.05.15-14.13-.33-21.16.11-10.77.68-21.49,2.51-32.26,2.76-11.92.28-22.75,6.89-34.93,5.23-4.48-.61-5.38,3.66-7,6.53-1,1.85-1.31,4.13-2.26,6.05-4,7.95-8.49,10.88-14.91,9.31-11.22-2.74-14.08-7.39-15.85-16.74a27.77,27.77,0,0,1,0-4.49c0-.38,0-.76,0-1.14a1.45,1.45,0,0,0-2.16-1.19c-.35.19-.69.39-1,.61-9.73,6.29-19.55,12.44-29.14,18.93-11.23,7.6-22.65,15-33.24,23.43S1442.17,84.69,1432,93.69c-4.73,4.2-6.19,9.55-7.16,15.58-1.9,11.77-3.45,23.78-7.2,35-3.27,9.8-10.35,18.21-20.82,21.24-5.08,1.47-11.33.6-16.61-.84-4.52-1.23-4.87-7-2.84-14.4,2.89-10.47,9.58-18.61,16-26.83,4.31-5.49,7-11.17,6.62-18.32s-.31-14.34,0-21.49c.45-10.9,1.3-21.79,1.91-32.69q0-.15,0-.29a1.46,1.46,0,0,0-2.67-.82l-.29.43c-8.34,13.31-16,27.07-27.57,38.08C1365.2,94.31,1358,95,1352,92s-9.32-8.49-9.09-15.83c.37-11.35,3.46-21.89,7.8-32.29,3.62-8.68,7.63-16.92,14.54-23.5a3.91,3.91,0,0,0,.89-1.52,1.45,1.45,0,0,0-1.57-1.92,9.25,9.25,0,0,0-1.59.34c-13.22,4.29-26.39,8.71-39.63,12.95-8.43,2.7-16.83,5.61-25.92,5.06-3.38-.2-6.78,0-10.17-.05-5.62-.16-7.41,1.35-8.32,6.77a31.06,31.06,0,0,1-7.11,15.1c-4.78,5.74-12.44,5-18,2.08a14.74,14.74,0,0,1-7.9-16.67,21.6,21.6,0,0,0,0-3.49c.05-1.18.12-2.35.19-3.53a1.45,1.45,0,0,0-2.36-1.22,23.5,23.5,0,0,0-3,2.68c-14.08,15.64-28,31.44-42.16,47A160.92,160.92,0,0,1,1184.65,97c-5.84,5-7.66,11.07-7.91,18.84-.49,15.25-1.78,30.7-9.82,44.31-4.89,8.28-11.5,14.65-22.22,14-3.38-.19-7.18.3-10-1.07-7.78-3.73-8.09-9.42-5.39-19.51,2.24-8.4,7.13-15.6,12.92-22.14a107.27,107.27,0,0,0,9.44-11.61,15.56,15.56,0,0,0,2.27-8c.21-14.66.17-29.33.06-44a104.27,104.27,0,0,0-1-11.08,2,2,0,0,0-1.17-1.5,2,2,0,0,0-1.72.91c-2.37,9-9,15.43-14.32,22.53-6.55,8.79-13.85,17-21.14,25.25-5,5.58-14.75,7.11-21,3.34-6.07-3.65-7.09-9.81-8.31-15.83a45.92,45.92,0,0,1-1.14-11c.19-4.47,1.29-8.89,1.87-13.35,1.3-10,6.41-18.36,11.1-26.89,1.22-2.23,3.55-3.83,5.16-5.89a6.18,6.18,0,0,0,.75-1.3,1.45,1.45,0,0,0-1.52-2l-.94.12c-3.19.36-6.37.77-9.57,1-13.08,1-26.18,1.84-39.25,3.06-11.64,1.09-23.27,2.33-34.83,4.05-7.56,1.13-14.93,3.4-22.45,4.85-7.91,1.53-16,2.4-23.82,4.12-11.57,2.52-23,5.7-34.54,8.29-19.69,4.42-38.59,11.22-57.25,18.7C867.26,80,855.85,85,844.6,90.42c-2.66,1.27-4.56,3.91-4.8,7.94-.6,9.83-3.36,18.71-11.66,25.64-5.91,4.93-20.06.68-20.72-7.2-.35-4.15,1.87-9.46,4.68-12.73,5.17-6,5.73-11.78,3-18.76a84.78,84.78,0,0,1-4.92-15.93c-.91-5-3-2.26-4.55-1.13-15,11.23-29.53,23.27-45.1,33.69-15.81,10.58-31.79,21.24-50.09,27.39-13,4.35-26.45,4.6-39.86,3.75-6.38-.41-10.08-6-13.51-10.87-5.14-7.33-6.13-16-6.92-24.58-.34-3.67-1-4-4.15-2.42-12.29,6.29-25.64,8-39,6.78-7.77-.71-12.78-7-15.9-14.07a24.47,24.47,0,0,1-.39-19,4.13,4.13,0,0,0-.44-2.71,1.46,1.46,0,0,0-2.33-.56,4.34,4.34,0,0,0-1.1,1.4c-5.32,12.24-15.92,19.09-26.31,26.27a702.8,702.8,0,0,1-82.63,49.22c-12.41,6.27-26.54,8.07-39.69,1.48-8.49-4.25-13.42-12.12-14.11-22-.44-6.19-.86-12.38-1-18.58-.05-3.4-1.7-2.84-3.82-2.22-12.64,3.69-25.25,7.49-38,10.92-3.53,1-7.36,1-11.06,1.05a178.38,178.38,0,0,1-19.16-.09c-4.33-.36-9.7-5.5-9.53-12a2.69,2.69,0,0,0-.12-.83,1.44,1.44,0,0,0-2.5-.47v0c-6.32,9-12.9,17.92-18.81,27.22-5,7.94-16.13,9.91-21.7,2.68-2-2.57-2.2-6.9-2.28-10.44-.27-11.66-.45-23.34,0-35,.29-6.95,1.63-13.89,2.93-20.75,1.35-7.12-2.14-9.23-10-8.22-9.5,1.23-19.25.48-28.87,1-2.27.12-5.2,1.27-6.53,3-2.55,3.24-4.19,7.2-6.16,10.89q-12,22.51-24,45c-8.51,16-16.31,32.37-25.73,47.78-5.89,9.65-13.94,18-27.29,17.3-6.36-.33-10.36-3.47-13.47-8.51-5.42-8.8-7.58-18.55-7.94-28.69-.54-15.19-.93-30.38-.93-45.58,0-5,1.41-10,2.11-15.07q0-.16,0-.32a1.46,1.46,0,0,0-2.51-1.14l-.09.11c-6.06,7.3-11.82,14.87-18.15,21.92-3.66,4.08-8.12,7.11-14.39,6.29-5-.66-8.38-4.2-9.23-9.18-2.92-17.09,2.3-33,6.71-49,.79-2.87.87-4.36-3-4-5.54.52-11.11.74-16.68.92-23.43.75-46.86,1.38-70.29,2.12-6.92.22-13.83.6-21,.92A1.47,1.47,0,0,1,.13,49.83C0,48.08,0,46.31,0,44.43a1.46,1.46,0,0,1,.83-1.32,7.08,7.08,0,0,1,2.75-.81c15.86-.39,31.72-.6,47.58-1.07q27.84-.82,55.67-2c6.57-.3,13.1-1.58,19.68-1.86,7.62-.33,10.73,3,9.39,10.46-2,11.46-4.72,22.8-7.12,34.19-.07.34-.13.68-.19,1a1.45,1.45,0,0,0,1.77,1.63,2.18,2.18,0,0,0,1.27-.64c4.57-5.89,8.71-12.13,13.45-17.87,3.95-4.78,7.76-10.2,15.18-9.88,8.52.37,15.75,4.18,16.33,10.34.8,8.48,0,17.12-.12,25.68,0,1.1-.39,2.2-.45,3.3q-1,19.83-2,39.67c-.34,6.86-.89,13.72-.87,20.58,0,2.15,1.14,5.7,2.5,6.1,2,.58,4.76-.84,7-1.86,5.46-2.5,7.24-8.11,9.77-12.83,6.86-12.79,13.27-25.83,19.89-38.75,7.75-15.12,15.65-30.17,23.27-45.36,2.52-5,3.68-10.88,9.55-13.43a13.36,13.36,0,0,1,4.41-1.36c3.71-.2,7.45,0,11.17-.08,10.86-.29,21.72-.81,32.58-.93,6.78-.08,7.85-3.71,8.75-8.45,1.62-8.48,2.51-17.22,5.16-25.37,5.22-16.07,20.4-16.75,31.35-7.41,6.88,5.87,8.35,13.76,6.08,20.75-3.32,10.2-9.45,19.67-20.48,23.59-5.06,1.8-5.62,5.35-6.08,9.43-.23,2,0,4,0,6q-.48,17.54-1,35.08c0,1.32-.12,2.64-.21,4a1.45,1.45,0,0,0,2.37,1.22c1.24-1,2.47-2,3.61-3.16,5.81-5.69,11-12.2,17.46-17,4.93-3.66,11.24-6,17.29-7.45,5.18-1.22,9.52,3.55,9.44,8.92a100.34,100.34,0,0,1-1,11.08c-.51,4,1.07,6.24,5.14,5.64A155.76,155.76,0,0,0,389,100.22c9.11-2.48,18.16-5.22,27.19-8,7.31-2.23,7.63-3.61,9-10.82a116.74,116.74,0,0,1,6.62-22.22,89,89,0,0,1,10.35-18.67c6-8.16,15.16-10.62,24.63-9,8,1.33,13.81,6.85,15.8,15,1.83,7.48-.42,14.52-5,20.59a60.37,60.37,0,0,1-17.53,15.28,12,12,0,0,0-6.35,10.77c-.28,7.38-2.82,14.64-3.6,22a88.51,88.51,0,0,0,.14,17.75c.45,4.65,6.25,7.11,11.72,4.73a296,296,0,0,0,27.07-13.08c13.56-7.63,27-15.59,40-24,10.87-7,21.31-14.77,31.61-22.63,3.68-2.81,6.21-7.08,9.63-10.31,3-2.83,1.64-5.22-.15-7.57-4.6-6.06-2.87-16.41,3.6-20.73,7.37-4.92,10.31-5.19,15.28-1.44,3.65,2.75,5.27,8.42,4,13.05a11.45,11.45,0,0,0-.23,3.29,1.45,1.45,0,0,0,1.47,1.42c1,0,2,0,2.95-.07,7.38-.4,14.77-1.16,22.15-1.09,3.25,0,4.77,2.74,3,5.94a61.7,61.7,0,0,0-8,27.15c-.18,3.19,1.53,6.37,5.3,5.63,6.07-1.19,12-3.17,17.95-4.89,2.07-.6,4.07-1.43,6.09-2.18,5.52-2.06,8-5.78,9.6-11.81,3-11.28,6.42-22.55,12.64-32.73,6.34-10.39,15.75-16.6,27.35-16.84,7.85-.17,16.8,1.55,21.59,10,2.08,3.65,1.94,13-3.75,20-6.81,8.45-15.3,14.92-24.53,20.31-4.62,2.69-6.65,5.91-6.67,11.19,0,8.86-.69,17.72-.86,26.58a37.51,37.51,0,0,0,1,8.57c.67,3.07,6.16,4.63,10.54,3.91,19.14-3.18,34.67-14.06,50.61-23.85,13.9-8.55,27.39-17.8,40.72-27.21,7.19-5.08,13.74-11.1,20.45-16.84,2.45-2.1,2.76-4.73,2.21-8.17-1.53-9.46-1.73-19.06,5.06-26.94,7.72-9,22.87-8.56,26.69,1.95,2.58,7.1.43,14.06-4.22,19.08s-3.66,9.59-1.75,14.94c2.08,5.82,4,11.71,5.59,17.68,1.51,5.73,3.34,6.62,8.67,4.37,20.43-8.61,40.6-18,61.53-25.2,19.21-6.57,39.24-10.83,59-15.68,12.62-3.1,25.37-5.84,38.18-8,11.68-1.93,23.54-2.76,35.32-4.13,14-1.63,27.91-3.87,41.94-4.84,14.48-1,29-.78,43.57-1.19,2.2-.06,4.57-1.3,6.54-.79a12.63,12.63,0,0,1,6.64,4.06c.83,1.1.11,4.8-1.13,5.81a90.47,90.47,0,0,0-21,24.3c-4.69,7.9-8.92,16-8.15,25.61a23.68,23.68,0,0,0,1,5.08c1.12,3.63,3.54,4.39,5.78,1.59,10.86-13.61,22.27-26.85,30.4-42.39,4.71-9,19-15.77,24.92-12.13,2.28,1.39,4.85,3.46,5.67,5.8a44.86,44.86,0,0,1,2.13,12.6c.55,10.85.72,21.72,1.09,32.58,0,1,.14,1.91.26,2.86a1.46,1.46,0,0,0,2.08,1.13,9,9,0,0,0,2.93-2c9.77-11.24,19.16-22.81,29.11-33.88,11.75-13.07,24.55-24.91,41.95-30.19a182.63,182.63,0,0,1,18-4.83c1.73-.34,4.4,1.14,5.71,2.61s2.74,4.13-1.1,5.29a2.25,2.25,0,0,0-.43.18,1.46,1.46,0,0,0,.58,2.7l.31,0c21,2.07,40.33-4.92,59.71-11.53,14.89-5.08,30-9.22,46-8.42,5.73.29,11.48,1.23,15.41,6.07a8.33,8.33,0,0,1,1.22,3.6,1.45,1.45,0,0,1-.93,1.65,6.58,6.58,0,0,1-2.53.57c-6.18-.36-9.94,4.17-13,7.88-7.82,9.34-13.95,19.9-16.5,32.06a54.79,54.79,0,0,0-.64,9.72c0,.45,1,1.41,1.3,1.32,1.89-.65,4.36-1,5.41-2.41,3.68-4.87,6.82-10.14,10.23-15.22,4-6,7.22-12.94,12.4-17.7,5.62-5.16,12.94-8.62,19.92-12,1.48-.72,5.38,1.56,7,3.46A23.87,23.87,0,0,1,1428,42.39c-.18,11.4,0,22.81,0,34.21,0,.35,0,.93,0,1.29,0,.51-.09,1-.14,1.54a1.45,1.45,0,0,0,2.18,1.41,20.89,20.89,0,0,0,2.68-1.77c12.51-10.09,24.48-20.92,37.55-30.21,16.58-11.78,33.77-22.76,51.22-33.21,8.11-4.86,17.37-7.88,26.29-11.28,4.31-1.64,10.8,2.33,12.28,6.72,1.28,3.79,8.2,7.25,12.94,6.15,9.56-2.21,19-4.89,28.63-6.85,4.73-1,9.7-.78,14.56-1.11s9.72-.9,14.58-.93c4,0,8.07,1,12.08.86,14.11-.47,28.21-1.21,42.54-1.86a1.45,1.45,0,0,1,1.52,1.35c.15,2.37.15,4.77.15,7.34M700.5,49.27c1.17-2.85,2.81-5.6,3.38-8.57.79-4.07-2-5.94-6.1-4.75-7.34,2.15-11.25,7.19-12.81,14.46-.71,3.34-1.73,6.62-2.53,9.94a6.43,6.43,0,0,0-.15,1.37,1.46,1.46,0,0,0,1.25,1.47c.82.12,1.61.22,2-.13,4.91-4.32,9.65-8.83,14.94-13.79m450.5,96.5c.59-2.92,1.29-5.82,1.71-8.76a10.34,10.34,0,0,0,0-2.09,1.45,1.45,0,0,0-2.34-1.05,6.4,6.4,0,0,0-1.36,1.34,63.5,63.5,0,0,0-6.23,9.88,70.94,70.94,0,0,0-4.65,13.51c-.38,1.65.78,4.88,2.08,5.44,2.5,1.07,4.9-.08,5.87-3.32,1.42-4.71,3.23-9.3,4.87-14.95m-825-133c-4.75,6.91-3.89,15.06-4.94,22.78a2.8,2.8,0,0,0,.41,1.53,1.45,1.45,0,0,0,1.79.72,2.87,2.87,0,0,0,1.59-1c2.84-5.1,6-10.11,8-15.55,1.78-4.9-2.32-10-6.84-8.48m137,53c4.59-6.09,8.06-12.56,7-20.56a8.45,8.45,0,0,0-.34-1.4,1.46,1.46,0,0,0-2-.9,2.83,2.83,0,0,0-1.6,1.13q-4.25,9.72-8,19.64a5.17,5.17,0,0,0-.18,2.25,1.45,1.45,0,0,0,2,1.23A30.43,30.43,0,0,0,463,65.77m933,75.44,0-1.69a1.45,1.45,0,0,0-2.48-1,4.79,4.79,0,0,0-.91,1.29c-1.89,4.18-3.45,8.52-5.05,12.82a1.8,1.8,0,0,0-.1.44,1.47,1.47,0,0,0,1.77,1.55,1.31,1.31,0,0,0,.66-.29c3.62-3.37,5.36-7.65,6.14-13.05m156.5-122c-2.85.69-7.54,9.31-6.41,12a3,3,0,0,0,2.26,0,68.67,68.67,0,0,0,4.14-12m-285,24c.44-2.56.89-5.11,1.27-7.68,0,0-1.17-.39-1.23-.28-1.22,2.11-2.36,4.26-3.48,6.43a1.54,1.54,0,0,0,0,1q.06.28.13.56a1.46,1.46,0,0,0,2.27.85c.32-.23.68-.5,1.09-.82M824.93,28.18a1.46,1.46,0,0,0-.72,1.58l.53,2.51c.42-.66,1.3-1.44,1.17-2C825.68,29.43,827.07,27,824.93,28.18Z"/><path d="M750.75,21c-2.41-.57-5.7-.87-6.4-2.37s1.23-4.19,2.13-6.31c.3-.71,1.23-1.18,1.46-1.89a16.84,16.84,0,0,0,.43-3.31,21.41,21.41,0,0,1-3.22.1,23.42,23.42,0,0,1-5.54-1.09c-.29-.11-.06-2.55.46-3.66.84-1.8,10.18-3.2,12.56-2.09,3.75,1.75,6.47,7.6,4.66,11A100,100,0,0,1,750.75,21Z"/></g></g><metadata>
      <rdf:RDF
           xmlns:rdf = "http://www.w3.org/1999/02/22-rdf-syntax-ns#"
           xmlns:rdfs = "http://www.w3.org/2000/01/rdf-schema#"
           xmlns:dc = "http://purl.org/dc/elements/1.1/" >
        <rdf:Description about="https://www.wheresgogo.com"
             dc:title="Logo for Where's Gogo"
             dc:description="Copyright 2017 Gabrielle Erftenbeck"
             dc:publisher="Gabrielle Erftenbeck"
             dc:date="2017-06-10"
             dc:format="image/svg+xml"
             dc:language="en" >
          <dc:creator>
            <rdf:Bag>
              <rdf:li>Gabrielle Erftenbeck</rdf:li>
            </rdf:Bag>
          </dc:creator>
        </rdf:Description>
      </rdf:RDF>
    </metadata></svg>